PathFileType	4	(X/Y/Z)	C:\Users\WrightLab\Desktop\Jo\P5V26.trc
DataRate	CameraRate	NumFrames	NumMarkers	Units	OrigDataRate	OrigDataStartFrame	OrigNumFrames
100.00	100.00	       14	19	mm	100.00	370	       739
Frame#	Time	Headset_Front			Headset_Back			Headset_Left			Headset_Right			Left_Shoulder			Right_Shoulder			Sternum			C7			Left Elbow			Right Elbow			Left Wrist			Right Wrist			Left ASIS			Right ASIS			S2			Left Knee			Right Knee			Left Ankle			Right Ankle			
		X1	Y1	Z1	X2	Y2	Z2	X3	Y3	Z3	X4	Y4	Z4	X5	Y5	Z5	X6	Y6	Z6	X7	Y7	Z7	X8	Y8	Z8	X9	Y9	Z9	X10	Y10	Z10	X11	Y11	Z11	X12	Y12	Z12	X13	Y13	Z13	X14	Y14	Z14	X15	Y15	Z15	X16	Y16	Z16	X17	Y17	Z17	X18	Y18	Z18	X19	Y19	Z19	

370	3.690							-250.20990	1570.59753	-176.68365	-471.17511	1524.55017	-119.79327	-188.80124	1513.87109	-403.87637	-553.16730	1427.60864	-234.07729	-335.84924	1300.27039	-266.80481	-436.55569	1525.53882	-423.51657	-85.73862	1239.92590	-469.65143	-691.77240	1186.95142	-181.08623	-72.44330	1024.17859	-354.34796	-400.47916	989.93317	-545.44727	-189.98265	928.39862	-347.15625	-439.30753	917.90363	-220.75529	-673.54907	1061.72803	35.01798	-109.30202	507.61996	-366.67383	-487.40396	485.23416	-284.69467	-158.59816	109.61396	-503.41592	-441.54590	86.23655	-289.77899	
371	3.700							-248.75465	1570.93127	-175.98418	-468.67328	1524.82458	-117.22170	-188.61266	1513.73230	-403.55933	-551.94360	1427.60059	-231.62000	-335.52356	1300.34973	-266.49512	-436.63916	1525.21704	-422.11844	-85.76463	1239.74060	-469.76834	-690.61121	1187.28564	-178.53183	-73.60897	1023.08386	-357.59296	-401.62247	989.93707	-543.57214	-189.69498	928.23914	-346.43579	-438.25528	917.80750	-219.54720	-670.62000	1061.30164	37.77976	-107.36938	508.34091	-368.05237	-487.69745	485.18420	-283.88092	-154.69678	108.22131	-499.73788	-440.97278	86.46761	-289.53589	
372	3.710							-247.00902	1571.54895	-176.49767	-466.53165	1525.17639	-115.30387	-188.12178	1513.17017	-403.30908	-551.70184	1427.76147	-230.60208	-335.13391	1300.30652	-265.77374	-436.13080	1525.12219	-421.09464	-85.74112	1239.29797	-470.50870	-688.66663	1186.84204	-176.55501	-72.74709	1021.87561	-358.46692	-402.55133	989.65179	-541.58093	-189.67221	928.24371	-346.42661	-437.08923	918.05933	-214.28123	-667.83936	1061.39551	38.92878	-106.68504	508.56018	-369.12604	-488.26889	485.46619	-282.75095	-151.57317	106.45905	-494.63242	-440.71039	86.43859	-289.43396	
373	3.720							-245.60213	1572.18103	-176.73651	-464.28976	1525.17004	-113.89786	-187.79207	1512.80139	-403.63229	-551.08313	1428.33545	-229.04732	-334.31482	1299.98682	-264.59482	-436.16476	1525.19495	-420.33084	-86.08017	1239.40967	-472.04401	-686.16553	1186.07886	-173.34579	-72.51486	1021.64905	-358.59848	-403.24368	989.43561	-539.02332	-189.18814	927.80829	-346.78931	-436.04459	918.17969	-215.97932	-664.43835	1060.88196	41.44792	-106.09830	508.54926	-369.71378	-488.74878	485.27332	-280.78799	-148.07457	105.67016	-490.97284	-440.37158	86.62582	-289.62775	
374	3.730							-244.22354	1573.39783	-177.05231	-461.48129	1525.75989	-112.46892	-187.70627	1512.74890	-403.66983	-550.70844	1428.59375	-227.52728	-333.68777	1300.12061	-264.27982	-435.82523	1525.11096	-419.27441	-86.08796	1239.27710	-472.13007	-684.11395	1186.12109	-171.53830	-71.52547	1022.26178	-358.07471	-404.42502	989.45013	-537.37140	-189.12547	927.81421	-346.76123	-435.12689	917.99011	-214.90965	-660.56665	1061.09192	43.67921	-105.62400	508.52841	-369.64407	-489.68430	486.41516	-280.02063	-144.41299	104.29500	-486.25885	-440.13699	86.84785	-289.40042	
375	3.740							-242.43944	1573.91553	-178.09586	-459.63263	1525.81177	-111.48427	-187.74728	1512.81177	-404.26401	-547.90753	1428.53650	-225.26494	-332.89218	1301.00317	-262.78638	-435.53760	1524.93542	-418.08646	-86.15093	1239.10205	-472.24255	-682.20483	1186.11365	-169.50491	-71.11207	1021.89435	-360.29327	-405.08322	989.38647	-536.06427	-188.47710	927.50348	-347.25565	-433.50748	918.37415	-213.44637	-656.08179	1061.09778	46.40889	-104.45670	508.59601	-369.26315	-489.00293	486.76166	-276.67142	-140.27238	102.84314	-482.23438	-440.01797	86.82561	-289.34283	
376	3.750							-240.65266	1574.54321	-178.88713	-457.26221	1526.59045	-110.74512	-187.60472	1512.38818	-404.76508	-546.56281	1428.98206	-223.47951	-332.11078	1301.10461	-261.99323	-435.36453	1525.29089	-417.32437	-86.48750	1239.24146	-473.73477	-680.12549	1186.11841	-167.56691	-71.90252	1020.37109	-361.87921	-405.13678	988.75317	-533.88916	-188.22574	927.76276	-347.79080	-432.85541	919.02002	-211.25075	-651.51801	1060.63879	48.30603	-104.48602	508.33173	-369.06186	-488.10913	486.11398	-274.52481	-137.59970	101.15657	-478.27014	-439.87714	86.86181	-289.27051	
377	3.760							-238.90181	1575.18140	-179.44447	-456.15323	1527.38977	-109.98238	-186.98943	1512.87671	-406.23904	-545.89520	1429.71228	-222.50684	-330.51819	1301.56750	-260.88574	-435.33264	1525.71362	-417.06769	-86.56387	1239.15649	-473.77505	-677.82391	1185.72656	-165.33408	-71.76418	1019.81702	-363.68393	-405.30130	989.05023	-532.71759	-187.72173	927.57422	-348.17731	-431.20108	919.45703	-209.07108	-646.51477	1061.59326	50.53381	-104.10828	508.57501	-368.52240	-487.95111	486.33331	-272.80692	-132.91226	100.38234	-474.12854	-439.77808	86.88968	-289.21109	
378	3.770							-236.32385	1575.92004	-180.67522	-452.65759	1528.45544	-109.29424	-186.55161	1513.05554	-406.50412	-543.95349	1429.93311	-220.94484	-329.17947	1301.59521	-261.74234	-434.70114	1525.83643	-415.42648	-86.61582	1239.07727	-473.93475	-675.50055	1185.66992	-163.24423	-69.90352	1020.37567	-363.04660	-405.86856	989.21057	-531.25140	-187.60530	927.40991	-349.05438	-430.23392	919.35773	-208.34601	-642.14032	1061.58264	52.45283	-104.08509	508.59152	-368.24731	-487.51343	486.17474	-269.38470	-128.71503	99.93553	-471.11859	-439.67529	86.93168	-289.14517	
379	3.780							-234.12517	1576.44678	-181.17931	-449.45276	1527.89746	-107.93610	-186.07339	1513.28430	-406.85379	-542.60486	1430.25061	-219.48204	-327.94366	1302.13342	-261.08875	-434.24170	1526.05896	-414.95880	-86.74108	1238.95337	-474.69608	-673.20258	1185.76855	-161.15471	-70.42918	1018.96136	-365.68069	-405.41669	989.28217	-530.09766	-187.75667	927.42761	-349.46194	-429.08276	920.24500	-206.98637	-636.11761	1062.46252	53.90522	-103.82587	508.93042	-368.11993	-486.96988	486.63159	-267.44577	-125.05557	98.42776	-466.30795	-439.55829	87.06179	-289.48578	
380	3.790							-232.00952	1577.13818	-182.61139	-445.74124	1528.36743	-106.84673	-185.52402	1513.56250	-408.89417	-541.17499	1430.77649	-217.46652	-326.68335	1302.76099	-266.67349	-433.66135	1525.90662	-414.26199	-86.89873	1238.71094	-476.19138	-670.93805	1185.73877	-159.81235	-70.51826	1018.65997	-368.61499	-405.14621	989.20447	-528.72601	-186.77779	927.57886	-349.26779	-427.71649	920.79089	-206.16676	-630.29016	1062.51807	56.61412	-103.61677	509.11841	-368.08826	-486.56958	486.47690	-264.04346	-120.80718	97.84069	-461.83539	-439.48956	87.09075	-289.43808	
381	3.800							-229.50868	1577.09216	-182.51366	-443.05228	1528.94666	-106.25140	-184.84004	1513.67566	-409.50946	-538.27631	1430.71472	-216.23010	-324.96515	1302.95288	-260.98193	-433.28311	1526.30713	-413.52704	-87.11597	1238.80225	-478.71545	-668.18243	1185.67310	-158.33430	-69.32077	1018.50781	-370.11349	-404.96619	989.38531	-528.41779	-186.28093	927.77826	-349.87943	-426.84909	920.92981	-205.50638	-623.89313	1063.28870	57.61813	-103.75755	509.11148	-368.14594	-485.86801	486.70850	-262.04114	-118.34291	97.37873	-457.88354	-439.29755	87.28696	-289.62500	
382	3.810							-227.24811	1577.77661	-184.05420	-439.24338	1529.07056	-104.97399	-184.63562	1514.12036	-411.00815	-537.29034	1431.40076	-215.45503	-322.29831	1303.69446	-261.20905	-432.88968	1526.58362	-413.43909	-87.03290	1239.22461	-479.58270	-663.09277	1185.96277	-153.38507	-68.86047	1017.94104	-372.14859	-404.61136	989.11115	-527.42981	-186.03978	928.60034	-349.40469	-424.89136	921.66461	-204.00264	-616.92053	1064.11951	59.70673	-103.80168	509.18680	-368.41824	-485.88715	486.38010	-259.68097	-114.76566	96.69292	-454.59705	-439.21213	87.35762	-289.56274	
383	3.820							-224.90768	1578.46191	-185.65295	-437.85464	1529.82861	-105.88394	-183.46960	1514.29858	-412.38940	-535.98895	1431.70361	-214.66908	-319.02567	1304.58569	-258.76987	-432.39542	1526.84338	-413.21313	-86.69043	1239.27954	-480.99802	-659.56439	1186.53345	-151.09691	-68.20907	1018.41644	-373.47931	-404.25699	989.22784	-526.87756	-185.20996	929.62006	-349.35330	-423.72296	922.14227	-202.55376	-610.25708	1064.42090	61.57144	-104.08582	509.36786	-368.71793	-485.77649	486.56799	-256.74033	-113.66474	97.19359	-452.93106	-439.10486	87.40614	-289.51205	
